<svg width="24" height="24" viewBox="0 0 24 24" fill="none" xmlns="http://www.w3.org/2000/svg">
<path d="M19 21H5C3.89543 21 3 20.1046 3 19V5C3 3.89543 3.89543 3 5 3H11C11.5523 3 12 3.44772 12 4V16C12 16.5523 12.4477 17 13 17H20C20.5523 17 21 17.4477 21 18V20C21 20.5523 20.5523 21 20 21V21H19ZM10 5H5V19H19V19.01H10V5Z" fill="currentColor"/>
<path d="M13 18.01V5.01C13 4.44772 13.4477 4.00929 14 4.00009V4.00009L20.5858 3.99996C21.1381 3.99996 21.5858 4.44764 21.5858 5.00009V18.01C21.5858 18.5623 21.1381 19.01 20.5858 19.01L13.5 19.0001C13.4783 19.0001 13.4565 19.0001 13.4348 19.0001C13.2576 19.0001 13.0819 18.9345 12.9414 18.8143C12.8009 18.6941 12.7008 18.5186 12.6608 18.3413C12.6208 18.1641 12.6417 17.9839 12.7214 17.8297C12.8012 17.6755 12.9359 17.5533 13.1 17.4801V18.01ZM13 17.01C13 17.01 13 17.01 13 17.01V18.01V17.01ZM14 4.00009V4.00009L14 4.00009H14.5H14V4.00009ZM14 18.01V18.01V18.01H19.5H14V18.01ZM20.5858 18.01C20.5858 18.01 20.5858 18.01 20.5858 18.01V5.00009V18.01ZM13.5 18.0001C13.5 18.0001 13.5 18.0001 13.5 18.0001L13.5 18.0001C13.5 18.0001 13.5 18.0001 13.5 18.0001V19.0001L13.5 18.0001Z" fill="currentColor"/>
</svg>