<svg width="24" height="24" viewBox="0 0 24 24" fill="none" xmlns="http://www.w3.org/2000/svg">
<path d="M12 22C15.866 22 19 18.866 19 15C19 13.0585 18.2213 11.2573 16.8519 9.88794C17.2448 8.67308 17.3916 7.35391 17.278 6.05C17.1643 4.74609 16.7961 3.48498 16.2006 2.34831C15.6052 1.21165 14.7961 0.237193 13.8283 0.000000124245C13.214 0.000000124245 12.5997 0.234746 12.1174 0.673866C11.6351 1.11299 11.3158 1.73326 11.201 2.39087C10.041 2.79538 9.05938 3.42315 8.33301 4.2314C7.60664 5.03965 7.17223 5.99747 7.07031 7.0207C6.9684 8.04393 7.10636 9.08887 7.48188 10.0268C6.04637 11.4623 5 13.4072 5 15.5C5 18.866 8.13401 22 12 22Z" fill="currentColor"/>
</svg><svg width="24" height="24" viewBox="0 0 24 24" fill="none" xmlns="http://www.w3.org/2000/svg">
<path d="M12 19C15.866 19 19 15.866 19 12C19 8.13401 15.866 5 12 5C8.13401 5 5 8.13401 5 12C5 15.866 8.13401 19 12 19Z" fill="currentColor"/>
<path d="M12 15C13.6569 15 15 13.6569 15 12C15 10.3431 13.6569 9 12 9C10.3431 9 9 10.3431 9 12C9 13.6569 10.3431 15 12 15Z" fill="currentColor" opacity="0.7"/>
</svg>